{"title":"Diary Of A Wimpy Kid CAM XViD - IMAGiNE","uid":5588162,"size":748441955,"categoryP":"video","categoryS":"movies","magnet":"?xt=urn:btih:77613a7419810304e3fa48c24df79566e90c40f5&amp;dn=Diary+Of+A+Wimpy+Kid+CAM+XViD+-+IMAGiNE&amp;tr=udp%3A%2F%2Ftracker.openbittorrent.com%3A80&amp;tr=udp%3A%2F%2Fopen.demonii.com%3A1337&amp;tr=udp%3A%2F%2Ftracker.coppersurfer.tk%3A6969&amp;tr=udp%3A%2F%2Fexodus.desync.com%3A6969","seeders":1,"leechers":0,"uploader":"IwannaFan2","files":3,"time":1274768065,"description":"Filename:\nDiary Of A Wimpy Kid CAM XViD - IMAGiNE\n &lt;a href=&quot;\nhttp://www.imdb.com/title/tt1014759/&quot; rel=&quot;nofollow&quot; target=&quot;_NEW&quot;&gt;\nhttp://www.imdb.com/title/tt1014759/&lt;/a&gt;\n\nDETAILS:\n\nVideo\nID                               : 0\nFormat                           : MPEG-4 Visual\nFormat profile                   : Advanced Simple@L5\nFormat settings, BVOP            : Yes\nFormat settings, QPel            : No\nFormat settings, GMC             : No warppoints\nFormat settings, Matrix          : Default (MPEG)\nMuxing mode                      : Packed bitstream\nCodec ID                         : XVID\nCodec ID/Hint                    : XviD\nDuration                         : 1h 26mn\nBit rate                         : 933 Kbps\nWidth                            : 608 pixels\nHeight                           : 256 pixels\nDisplay aspect ratio             : 2.35\nFrame rate                       : 23.976 fps\nResolution                       : 24 bits\nColorimetry                      : 4:2:0\nScan type                        : Progressive\nBits/(Pixel*Frame)               : 0.250\nStream size                      : 579 MiB (82%)\nWriting library                  : XviD 1.2.1 (UTC 2008-12-04)\n\nAudio\nID                               : 1\nFormat                           : AC-3\nFormat/Info                      : Audio Coding 3\nCodec ID                         : 2000\nDuration                         : 1h 26mn\nBit rate mode                    : Constant\nBit rate                         : 192 Kbps\nChannel(s)                       : 2 channels\nChannel positions                : L R\nSampling rate                    : 48.0 KHz\nStream size                      : 119 MiB (17%)\nAlignment                        : Aligned on interleaves\nInterleave, duration             : 42 ms (1.00 video frame)\nInterleave, preload duration     : 512 ms\n\n\nNOTES:\n\nIMAGiNE bringing you another release.....Diary Of A Wimpy Kid\n\nRight heres another straight forward re-encode......source was a dvdr by no grp so thanks whoever\nThe video would be ok if it wasn't for th flicker......we have used a deflicker filter but got to say it hasn't done much as using\nit too much just makes it go grey where the flicker is so ....\nWe've also done alot more work to it ..changing the colours,res,deblocker,shaprness,smoother .....\nThe audio is untouched and just remuxed back to the encoded video .\nSo before anyone starts moaning ....the quality on this isn't that great but has you can see it's been pretty quiet lately so we thought\nwe'd just clean up some of the bad releases that have been out....\n","torrent":{"xt":"urn:btih:77613a7419810304e3fa48c24df79566e90c40f5","amp;dn":"Diary+Of+A+Wimpy+Kid+CAM+XViD+-+IMAGiNE","amp;tr":["udp%3A%2F%2Ftracker.openbittorrent.com%3A80","udp%3A%2F%2Fopen.demonii.com%3A1337","udp%3A%2F%2Ftracker.coppersurfer.tk%3A6969","udp%3A%2F%2Fexodus.desync.com%3A6969"],"infoHash":"77613a7419810304e3fa48c24df79566e90c40f5","infoHashBuffer":{"type":"Buffer","data":[119,97,58,116,25,129,3,4,227,250,72,194,77,247,149,102,233,12,64,245]},"announce":[],"urlList":[]}}